<svg width="208" height="193" viewBox="0 0 208 193" fill="none" xmlns="http://www.w3.org/2000/svg">
<path d="M147.787 3.51963C158.361 3.83894 167.925 6.49216 176.146 11.1856C184.794 16.1227 191.943 23.3121 197.135 32.3577C202.582 41.8457 205.832 53.3031 206.362 66.1366C206.913 79.4587 204.523 94.0593 198.737 109.073C192.84 124.367 184.13 138.256 173.554 150.029C163.048 161.723 150.951 171.054 138.255 177.545C125.913 183.857 113.238 187.364 101.098 187.821C89.4806 188.259 78.5106 185.897 68.8606 180.63C59.7175 175.64 52.639 168.515 47.5678 160.072C42.7379 152.03 39.6995 142.744 38.4016 132.846C37.1548 123.332 37.5046 113.163 39.4436 102.823C41.3302 92.765 44.7439 82.4166 49.7506 72.1572C54.695 62.0282 60.8107 52.7657 67.7015 44.5769C74.6252 36.3515 82.4447 29.0768 90.7749 23.0416C99.2745 16.8844 108.431 11.9278 117.838 8.55306C127.574 5.06135 137.713 3.21616 147.787 3.51963Z" fill="white"/>
<path d="M130.415 61.0433C113.574 45.6858 88.0583 65.9914 81.5928 82.2361C77.0225 93.7192 76.2486 110.046 88.3959 117.53C88.5153 117.604 88.6356 117.676 88.7566 117.747C88.7631 117.751 88.7696 117.755 88.7761 117.759C88.7826 117.762 88.7895 117.766 88.7968 117.77C88.8033 117.774 88.8098 117.778 88.8163 117.782C88.8228 117.785 88.8293 117.789 88.8358 117.793C89.5435 118.203 90.2512 118.613 90.9589 119.022C79.8878 112.626 79.605 99.0707 83.2101 88.1739C87.8316 74.2046 99.5218 60.9019 114.618 58.4083C120.716 57.4017 127.237 58.7472 132.229 62.6959C131.624 62.145 131.019 61.5942 130.415 61.0433Z" fill="#512F9E"/>
<path d="M122.417 84.1947C122.204 81.0991 119.48 76.7762 116.729 74.9663C119.383 77.3295 120.235 81.4086 119.925 84.7395C119.436 89.9789 116.132 95.278 112.002 98.4638C108.073 101.495 102.31 102.686 97.8656 100.477C103.116 103.087 107.602 104.817 113.112 101.373C117.789 98.4504 121.256 93.1854 122.224 87.7693C122.428 86.6237 122.501 85.4073 122.417 84.1947Z" fill="#512F9E"/>
<path d="M154.79 43.0962C153.3 41.4631 151.671 39.9835 149.912 38.6685C140.4 31.5546 128.014 30.1494 116.642 32.5942C99.1319 36.3589 83.9304 48.1759 73.4333 62.3732C66.7972 71.348 61.7199 82.0511 59.0631 92.9223C56.5256 103.307 56.4184 114.46 60.0198 124.526C63.6212 134.591 71.1689 143.441 81.0761 147.457C72.7691 143.709 66.5998 136.066 63.3908 127.536C59.7772 117.929 59.3214 106.833 61.269 96.8016C61.594 95.1238 61.9856 93.4363 62.4439 91.7389C70.1817 63.119 96.3288 34.4028 127.686 33.6484C138.415 33.3913 149.593 37.401 156.899 45.4069L154.79 43.0962Z" fill="#512F9E"/>
<path d="M148.04 74.8262C147.029 67.3748 143.763 60.3584 138.218 54.7412C142.441 59.019 145.052 64.7581 145.995 70.6959C149.983 95.8046 129.142 124.37 104.318 129.483C98.1715 130.75 91.4465 130.228 85.7781 127.341C91.9876 130.387 99.0649 131.548 105.922 130.6C112.652 129.668 118.996 126.814 124.504 122.892C130.239 118.807 135.139 113.569 139.04 107.719C142.795 102.09 145.677 95.8228 147.262 89.2355C148.419 84.4214 148.68 79.5367 148.04 74.8262Z" fill="#512F9E"/>
<path d="M177.439 71.0516C176.776 59.1847 172.241 47.286 164.302 38.3647C171.377 46.9082 174.994 57.8367 175.379 68.8189C176.598 103.545 153.737 137.857 123.958 152.874C109.74 160.044 92.1143 163.168 77.0322 156.769C107.15 169.55 140.037 151.651 158.418 127.522C170.583 111.553 178.574 91.3536 177.439 71.0516Z" fill="#512F9E"/>
<path d="M134.931 23.6348C142.748 24.2515 149.7 26.6366 155.557 30.5183C161.643 34.5487 166.538 40.1879 169.959 47.097C173.502 54.2523 175.442 62.725 175.467 72.0704C175.492 81.6705 173.497 92.081 169.212 102.721C164.87 113.502 158.668 123.301 151.234 131.67C143.837 139.999 135.343 146.77 126.405 151.645C117.646 156.421 108.578 159.312 99.7971 160.09C91.2902 160.844 83.138 159.607 75.8376 156.24C68.8225 153.004 63.2687 148.106 59.1798 142.118C55.2395 136.345 52.6436 129.534 51.3944 122.156C50.183 114.998 50.228 107.254 51.5528 99.3058C52.8484 91.5265 55.3821 83.4742 59.2151 75.4658C63.0115 67.5354 67.7744 60.2887 73.1771 53.9061C78.5993 47.5004 84.7345 41.8844 91.2634 37.2897C97.8946 32.6231 105.007 28.9571 112.264 26.5818C119.715 24.143 127.396 23.0401 134.931 23.6348ZM80.0143 146.865C86.3798 149.604 93.4388 150.508 100.764 149.719C108.292 148.91 116.032 146.322 123.488 142.161C131.074 137.927 138.274 132.117 144.554 125.018C150.859 117.889 156.146 109.565 159.89 100.411C163.594 91.3595 165.385 82.4834 165.479 74.2666C165.572 66.2362 164.041 58.9128 161.133 52.685C158.312 46.6412 154.209 41.6601 149.055 38.0478C144.068 34.5512 138.102 32.3428 131.349 31.6737C124.808 31.0253 118.106 31.8821 111.577 33.9357C105.199 35.9418 98.9293 39.1069 93.0732 43.1787C87.2976 47.1945 81.8656 52.1329 77.0698 57.7842C72.2886 63.4185 68.0852 69.8255 64.7555 76.8381C61.3967 83.9142 59.2066 91.0171 58.1256 97.8628C57.0238 104.839 57.064 111.61 58.217 117.839C59.4016 124.235 61.7696 130.1 65.3052 135.027C68.9566 140.114 73.8657 144.22 80.0143 146.865Z" fill="#381A7A"/>
<path d="M183.984 29.1877C181.488 25.8459 178.659 22.8514 175.533 20.2359C157.313 4.98816 131.753 5.17098 110.587 13.4719C78.7227 25.9677 54.0576 54.9191 42.8597 86.9223C31.7764 118.595 35.5533 161.84 70.1804 176.704C66.3999 175.191 61.899 170.937 58.8948 168.169C55.6542 165.184 52.8912 161.583 50.5439 157.869C45.7165 150.228 42.5952 141.513 41.1998 132.595C38.7647 117.034 41.1303 100.461 46.4916 85.7206C57.4945 55.4639 81.5367 28.2395 111.696 16.1373C123.191 11.5255 135.909 9.46585 148.254 10.826C162.642 12.4104 177.149 20.041 185.884 31.73L183.984 29.1877Z" fill="#512F9E"/>
<path d="M145.457 0.0179845C156.524 0.260516 166.565 2.93446 175.225 7.74486C184.357 12.8185 191.94 20.2614 197.483 29.6738C203.311 39.5689 206.838 51.5601 207.492 65.0322C208.172 79.0442 205.735 94.4297 199.68 110.271C193.506 126.424 184.325 141.088 173.149 153.502C162.052 165.826 149.267 175.626 135.857 182.398C122.839 188.971 109.49 192.561 96.7311 192.922C84.5497 193.265 73.0764 190.657 63.0168 185.01C53.5105 179.671 46.181 172.121 40.955 163.222C35.9886 154.763 32.8917 145.031 31.6023 134.686C30.3653 124.761 30.7796 114.171 32.8344 103.42C34.8295 92.9745 38.4005 82.2373 43.6094 71.5988C48.7501 61.0993 55.0937 51.498 62.2356 43.0045C69.4104 34.4708 77.5114 26.9121 86.1438 20.6283C94.9578 14.2115 104.462 9.02577 114.236 5.46702C124.366 1.77908 134.933 -0.212359 145.457 0.0179845ZM67.3385 175.312C76.4864 180.132 86.8458 182.216 97.7792 181.681C109.175 181.123 121.044 177.728 132.581 171.742C144.426 165.596 155.706 156.831 165.509 145.891C175.375 134.884 183.522 121.919 189.079 107.645C194.542 93.6156 196.864 79.9546 196.455 67.4587C196.06 55.3943 193.127 44.5852 188.128 35.5957C183.348 27.0011 176.713 20.131 168.641 15.3681C160.947 10.8295 151.959 8.21164 141.984 7.80824C132.458 7.42311 122.844 9.09524 113.592 12.353C104.638 15.5059 95.9096 20.1834 87.8013 26.0237C79.8453 31.7518 72.3768 38.678 65.7651 46.523C59.1838 54.334 53.3509 63.1773 48.6502 72.848C43.8922 82.6383 40.6674 92.5053 38.9136 102.085C37.111 111.919 36.8368 121.572 38.0897 130.579C39.3901 139.933 42.3492 148.677 47.0036 156.217C51.8799 164.112 58.6439 170.731 67.3385 175.312Z" fill="#381A7A"/>
<path d="M96.2871 99.1442C96.608 99.4984 96.9631 99.8242 97.3523 100.122C100.723 102.682 105.626 102.081 109.378 100.122C114.741 97.3185 118.686 91.945 119.754 85.989C120.523 81.6978 119.513 76.6497 115.839 74.3024C106.478 68.3196 95.6265 80.3462 94.0348 88.7422C93.3511 92.3521 93.8764 96.491 96.2871 99.1442Z" fill="#381A7A"/>
<path d="M124.072 48.0015C128.735 48.6584 132.796 50.3939 136.137 53.0081C139.555 55.6808 142.216 59.2688 143.984 63.5418C145.789 67.9049 146.657 72.9639 146.447 78.4495C146.234 84.0229 144.913 89.9996 142.357 96.0666C139.783 102.181 136.228 107.746 132.025 112.536C127.833 117.311 123.036 121.268 117.975 124.216C112.971 127.129 107.748 129.033 102.627 129.769C97.6024 130.491 92.7067 130.084 88.2326 128.426C83.8659 126.805 80.3193 124.143 77.6307 120.754C75.0019 117.439 73.1859 113.42 72.2134 108.977C71.2591 104.616 71.1116 99.8276 71.8075 94.8539C72.4937 89.9484 74.0025 84.8321 76.3876 79.7207C78.7581 74.6422 81.7879 70.006 85.254 65.9415C88.7287 61.8672 92.6701 58.3353 96.8565 55.498C101.086 52.6328 105.595 50.4548 110.156 49.1423C114.794 47.8077 119.516 47.3592 124.072 48.0015ZM92.2752 119.356C95.7925 120.561 99.6182 120.796 103.524 120.166C107.488 119.528 111.517 118.003 115.364 115.718C127.509 108.508 136.65 94.6967 137.373 80.4446C137.588 76.1875 136.981 72.2424 135.649 68.8178C134.338 65.4479 132.329 62.5924 129.719 60.4388C127.155 58.3219 124.011 56.885 120.377 56.2927C116.809 55.7125 113.091 56.0026 109.423 57.0068C105.649 58.0403 102.089 59.7746 98.8406 61.9464C95.4939 64.1828 92.3423 66.9872 89.5659 70.2339C86.7945 73.4746 84.3789 77.1784 82.5033 81.2356C80.6179 85.3135 79.443 89.389 78.936 93.2878C78.4217 97.228 78.5874 101.006 79.3979 104.428C80.2206 107.903 81.7087 111.022 83.8342 113.57C85.9975 116.165 88.8225 118.171 92.2752 119.356Z" fill="#381A7A"/>
<path d="M17.8973 3.6599C17.7267 2.29733 17.1758 1.18096 18.4506 0.604492C17.5292 0.604492 15.0601 1.11759 15.5098 3.75009C15.5098 3.7513 18.3897 20.5859 18.3897 20.5859L20.7662 20.4969C19.8725 15.2677 18.9783 10.0388 18.0838 4.8104C18.0253 4.46793 17.9485 4.07183 17.8973 3.6599Z" fill="#512F9E"/>
<path d="M18.3129 0.610269C19.6864 0.509113 21.9265 1.61818 25.2074 5.00996C31.9178 11.9422 49.547 36.5658 47.2119 40.5414C47.138 40.6625 47.0486 40.777 46.9438 40.8851L19.5292 20.4966L16.6505 3.6608C16.3909 2.14102 16.8797 0.7163 18.3129 0.610269Z" fill="#381A7A"/>
<path d="M107.72 87.1205L94.0642 63.417L79.1077 82.2113L106.675 88.5403C107.495 88.7292 108.143 87.8481 107.72 87.1205Z" fill="url(#paint0_linear_425_2238)"/>
<path d="M79.7061 77.8605C79.2942 78.66 77.7952 81.2742 78.8067 82.0688C78.8993 82.1403 78.9997 82.1879 79.1077 82.2114C79.499 82.3016 79.9645 82.1103 80.3362 81.8958C82.3703 80.7258 84.0912 79.0817 85.6792 77.3535C88.2545 74.5491 90.5408 71.4791 92.4872 68.2068C93.1807 67.0404 93.8412 65.8253 94.1227 64.4981C94.1995 64.1398 94.2275 63.723 94.0642 63.4171C94.0195 63.3326 93.959 63.2578 93.8826 63.1928C93.5292 62.8979 92.9966 63.01 92.5713 63.1867C91.422 63.6645 90.4567 64.4798 89.5488 65.311C85.6561 68.871 82.129 73.1537 79.7061 77.8605Z" fill="url(#paint1_linear_425_2238)"/>
<path d="M92.1912 66.3133C92.0071 67.2286 91.1479 68.4827 90.9078 68.8885C89.6708 70.9823 88.2375 72.9153 86.669 74.7751C85.8658 75.7281 85.0834 76.7287 84.1694 77.5758C83.3028 78.3789 82.4192 79.2467 81.3272 79.7378C80.9226 79.9194 80.6545 79.9109 80.5265 79.7293C80.3985 79.5477 80.4071 79.1967 80.5643 78.6897C81.0749 77.0334 82.0963 75.566 83.0713 74.1523C84.3351 72.3205 85.7306 70.5875 87.2333 68.947C88.3387 67.7417 89.566 66.3998 91.0163 65.6064C91.4575 65.3675 91.7792 65.3054 91.9559 65.42C92.2241 65.5942 92.2692 65.9233 92.1912 66.3133Z" fill="url(#paint2_radial_425_2238)"/>
<path d="M96.4678 58.0912C98.7627 59.9145 95.5903 67.7279 89.3808 75.5425C83.1725 83.3571 76.2792 88.2151 73.9843 86.3918C71.6894 84.5686 74.863 76.7552 81.0713 68.9405C87.2797 61.1259 94.1741 56.268 96.4678 58.0912Z" fill="url(#paint3_radial_425_2238)"/>
<path d="M88.7346 72.147C88.6688 72.2421 88.5981 72.3335 88.5286 72.4285C88.1947 72.877 87.8474 73.3316 87.4927 73.7728C87.2205 74.1149 86.9459 74.4488 86.6688 74.7746C86.5949 74.8648 86.5189 74.953 86.4409 75.0391C84.2228 73.3597 82.0043 71.681 79.7853 70.0032C77.4071 68.2043 75.029 66.4055 72.6508 64.6066C69.4065 62.1537 66.1625 59.7003 62.919 57.2466C59.145 54.3923 55.3713 51.5379 51.5981 48.6836C47.629 45.6823 43.6604 42.6809 39.6921 39.6795C35.8644 36.7838 32.0363 33.8884 28.2078 30.9935C24.8563 28.4585 21.5043 25.9231 18.1519 23.3873C15.6112 21.4657 13.0705 19.5441 10.5299 17.6226C9.13561 16.5679 7.74177 15.5137 6.34833 14.4599C6.18421 14.3356 6.02008 14.2113 5.85596 14.087L6.00464 9.55078C6.72777 10.0976 7.45089 10.6444 8.17402 11.1912C10.1386 12.6781 12.1033 14.165 14.0679 15.6518C16.9701 17.848 19.8724 20.0442 22.7746 22.2404C26.3106 24.9152 29.8462 27.5903 33.3814 30.2659C37.2449 33.1901 41.1087 36.1138 44.9729 39.0372C48.8616 41.9793 52.7498 44.9217 56.6376 47.8646C60.2459 50.5946 63.8542 53.3246 67.4625 56.0546C70.4859 58.3426 73.5092 60.6306 76.5325 62.9186C78.6669 64.5339 80.8018 66.1491 82.937 67.7644C84.8691 69.2261 86.8017 70.6869 88.7346 72.147Z" fill="url(#paint4_linear_425_2238)"/>
<path d="M6.4714 12.2288C6.41412 13.4695 6.11309 14.2836 5.79987 14.046C5.48665 13.8095 5.27825 12.6103 5.33431 11.3696C5.39159 10.1289 5.69262 9.3148 6.00584 9.55246C6.32028 9.78889 6.52746 10.9881 6.4714 12.2288Z" fill="url(#paint5_linear_425_2238)"/>
<path d="M0.273107 25.6812C-0.239986 26.6123 0.0452015 27.7811 0.509545 28.7378C3.08355 34.0333 9.27967 36.7182 14.4703 38.6841C13.7976 38.4293 13.1102 38.1442 12.4314 37.809C8.72758 35.9858 4.11948 32.3063 2.6253 29.7214C2.06467 28.75 1.74901 27.5045 2.26942 26.5112C2.97142 25.1718 4.72398 25.0012 6.05608 24.6965C7.62745 24.3357 9.19883 23.9754 10.7702 23.6154C12.4326 23.2344 14.095 22.8533 15.7573 22.4723C16.1936 22.3723 16.814 21.713 17.2625 21.6106C17.2613 21.6106 15.4015 21.3071 15.4015 21.3071L6.34979 23.3827C2.8788 24.1785 1.07261 24.2321 0.273107 25.6812Z" fill="#512F9E"/>
<path d="M17.2624 21.6104L45.2571 43.0104C44.51 43.7465 43.3814 44.4327 41.4582 44.3937C34.3554 44.2499 19.6901 40.9422 12.5227 37.8417C3.04689 33.7418 -2.14011 26.0588 3.75742 24.706L17.2624 21.6104Z" fill="#381A7A"/>
<defs>
<linearGradient id="paint0_linear_425_2238" x1="72.2145" y1="78.8991" x2="89.3712" y2="53.021" gradientUnits="userSpaceOnUse">
<stop stop-color="#F6D952"/>
<stop offset="0.324" stop-color="#E99D24"/>
<stop offset="1" stop-color="#FFE856"/>
</linearGradient>
<linearGradient id="paint1_linear_425_2238" x1="104.338" y1="70.7986" x2="95.8496" y2="88.0946" gradientUnits="userSpaceOnUse">
<stop stop-color="#F6D952"/>
<stop offset="1" stop-color="#F4C841"/>
</linearGradient>
<radialGradient id="paint2_radial_425_2238" cx="0" cy="0" r="1" gradientUnits="userSpaceOnUse" gradientTransform="translate(84.5847 74.0932) scale(10.07 10.07)">
<stop offset="0.004" stop-color="#EFAB26"/>
<stop offset="0.519" stop-color="#DF8B26"/>
<stop offset="1" stop-color="#C46700"/>
</radialGradient>
<radialGradient id="paint3_radial_425_2238" cx="0" cy="0" r="1" gradientTransform="matrix(11.2436 -14.1487 4.15496 3.30111 85.2264 72.2416)" gradientUnits="userSpaceOnUse">
<stop offset="0.21" stop-color="#F4C841"/>
<stop offset="0.689" stop-color="#F6D246"/>
<stop offset="1" stop-color="#FFFDA6"/>
</radialGradient>
<linearGradient id="paint4_linear_425_2238" x1="106.181" y1="31.8153" x2="19.2213" y2="145.675" gradientUnits="userSpaceOnUse">
<stop offset="0.062" stop-color="#EFAB26"/>
<stop offset="0.361" stop-color="#DD8523"/>
<stop offset="0.589" stop-color="#EFAB26"/>
</linearGradient>
<linearGradient id="paint5_linear_425_2238" x1="15.0251" y1="8.05754" x2="14.9674" y2="14.2871" gradientUnits="userSpaceOnUse">
<stop stop-color="#F6D952"/>
<stop offset="0.247" stop-color="#FFE856"/>
<stop offset="0.709" stop-color="#E99D24"/>
</linearGradient>
</defs>
</svg>
