<svg width="192" height="188" viewBox="0 0 192 188" fill="none" xmlns="http://www.w3.org/2000/svg">
<path fill-rule="evenodd" clip-rule="evenodd" d="M56.9171 48.3213H0L46.8557 156.122C55.2664 175.472 74.4304 188 95.6207 188C116.811 188 135.975 175.472 144.386 156.122L191.241 48.3213H134.324L100.174 128.353L88.7906 155.534L81.2017 156.289L91.8262 128.353L56.9171 48.3213Z" fill="white"/>
<path d="M47.0515 21.1406C47.0515 32.8162 37.5379 42.2811 25.8024 42.2811C14.0669 42.2811 4.55337 32.8162 4.55337 21.1406C4.55337 9.46495 14.0669 0 25.8024 0C37.5379 0 47.0515 9.46495 47.0515 21.1406Z" fill="white"/>
<path d="M186.688 21.1406C186.688 32.8162 177.174 42.2811 165.439 42.2811C153.703 42.2811 144.19 32.8162 144.19 21.1406C144.19 9.46495 153.703 0 165.439 0C177.174 0 186.688 9.46495 186.688 21.1406Z" fill="white"/>
</svg>
