<svg width="174" height="174" viewBox="0 0 174 174" fill="none" xmlns="http://www.w3.org/2000/svg">
<path d="M137.681 137.75H137.75H137.681ZM137.681 137.75C133.167 142.227 124.985 141.112 119.247 141.112C112.205 141.112 108.813 142.489 103.787 147.516C99.507 151.796 93.7693 159.5 87 159.5C80.2307 159.5 74.493 151.796 70.2131 147.516C65.1868 142.489 61.7953 141.112 54.7524 141.112C49.0149 141.112 40.8333 142.227 36.3188 137.75C31.7681 133.238 32.888 125.022 32.888 119.247C32.888 111.95 31.2922 108.595 26.0955 103.398C18.3653 95.6681 14.5001 91.8024 14.5 87C14.5001 82.1969 18.3651 78.3319 26.0953 70.6017C30.7342 65.9628 32.888 61.366 32.888 54.7524C32.888 49.0147 31.7731 40.833 36.25 36.3184C40.7626 31.7679 48.9781 32.8879 54.7526 32.8879C61.366 32.8879 65.9628 30.7342 70.6016 26.0954C78.3319 18.3651 82.1969 14.5 87 14.5C91.8031 14.5 95.6681 18.3651 103.398 26.0954C108.036 30.7333 112.632 32.8879 119.247 32.8879C124.985 32.8879 133.167 31.7729 137.682 36.25C142.232 40.7626 141.112 48.978 141.112 54.7524C141.112 62.0497 142.708 65.4049 147.904 70.6017C155.635 78.3319 159.5 82.1969 159.5 87C159.5 91.8024 155.635 95.6681 147.904 103.398C142.708 108.595 141.112 111.95 141.112 119.247C141.112 125.022 142.232 133.238 137.681 137.75Z" fill="#381A7A"/>
<path d="M65.25 93.4735L78.3 105.125L108.75 68.875" stroke="white" stroke-width="10.875" stroke-linecap="round" stroke-linejoin="round"/>
</svg>
