<svg width="20" height="24" viewBox="0 0 20 24" fill="none" xmlns="http://www.w3.org/2000/svg">
<g clip-path="url(#clip0_425_4317)">
<path d="M18.9087 8.18824C17.3094 9.17647 16.3217 10.8706 16.3217 12.7529C16.3217 14.8706 17.5916 16.8 19.5201 17.6C19.1438 18.8235 18.5794 19.9529 17.8739 20.9882C16.8391 22.4471 15.7572 23.9529 14.158 23.9529C12.5588 23.9529 12.0884 23.0118 10.207 23.0118C8.37256 23.0118 7.71405 24 6.20889 24C4.70374 24 3.66894 22.6353 2.49304 20.9412C0.940845 18.5882 0.0471582 15.8588 0.00012207 12.9882C0.00012207 8.32941 3.01044 5.83529 6.02075 5.83529C7.61998 5.83529 8.93699 6.87059 9.92475 6.87059C10.8655 6.87059 12.3706 5.78824 14.158 5.78824C16.0394 5.74118 17.8268 6.63529 18.9087 8.18824ZM13.3114 3.81176C14.111 2.87059 14.5343 1.69412 14.5813 0.470588C14.5813 0.329412 14.5813 0.141176 14.5343 0C13.1702 0.141176 11.9003 0.8 11.0066 1.83529C10.207 2.72941 9.7366 3.85882 9.68957 5.08235C9.68957 5.22353 9.68957 5.36471 9.7366 5.50588C9.83068 5.50588 9.97179 5.55294 10.0659 5.55294C11.3358 5.45882 12.5117 4.8 13.3114 3.81176Z" fill="black"/>
</g>
<defs>
<clipPath id="clip0_425_4317">
<rect width="19.52" height="24" fill="white"/>
</clipPath>
</defs>
</svg>
