<svg width="24" height="24" viewBox="0 0 24 24" fill="none" xmlns="http://www.w3.org/2000/svg">
<path d="M15.544 12.4999H15V6.49994C15 5.56806 15 5.10211 14.8478 4.73457C14.6448 4.24452 14.2554 3.85517 13.7654 3.65218C13.3978 3.49994 12.9319 3.49994 12 3.49994C11.0681 3.49994 10.6022 3.49994 10.2346 3.65218C9.74458 3.85517 9.35523 4.24452 9.15224 4.73457C9 5.10211 9 5.56806 9 6.49994V12.4999H8.45596C6.37322 12.4999 5.33185 12.4999 5.05779 13.1002C4.78372 13.7005 5.49744 14.4182 6.92487 15.8535L10.4689 19.4171C11.1868 20.139 11.5458 20.4999 12 20.4999C12.4542 20.4999 12.8132 20.139 13.5311 19.4171L17.0751 15.8535C18.5026 14.4182 19.2163 13.7005 18.9422 13.1002C18.6681 12.4999 17.6268 12.4999 15.544 12.4999Z" stroke="#7A1717" stroke-width="1.5" stroke-linecap="round" stroke-linejoin="round"/>
</svg>
