<svg width="12" height="12" viewBox="0 0 12 12" fill="none" xmlns="http://www.w3.org/2000/svg">
<path d="M2.5 10.25H9.5" stroke="white" stroke-width="1.5" stroke-linecap="round" stroke-linejoin="round"/>
<path d="M8.43585 8.75H3.56415C3.05009 8.75 2.79306 8.75 2.59812 8.6117C2.40317 8.4734 2.31825 8.2308 2.1484 7.7456L1.02561 4.53834C0.96586 4.36162 1.01251 4.1668 1.14612 4.03508C1.31427 3.86932 1.57773 3.8436 1.77559 3.97363L2.39175 4.37859C3.0137 4.78735 3.32468 4.99172 3.63908 4.91744C3.95348 4.84315 4.1401 4.5212 4.51333 3.8773L5.6206 1.96706C5.6984 1.83283 5.8432 1.75 6 1.75C6.1568 1.75 6.3016 1.83283 6.3794 1.96706L7.48665 3.8773C7.8599 4.5212 8.0465 4.84315 8.3609 4.91744C8.67535 4.99172 8.9863 4.78735 9.60825 4.37859L10.2244 3.97363C10.4223 3.8436 10.6858 3.86932 10.8539 4.03508C10.9875 4.1668 11.0342 4.36162 10.9744 4.53834L9.8516 7.7456C9.68175 8.2308 9.59685 8.4734 9.4019 8.6117C9.20695 8.75 8.9499 8.75 8.43585 8.75Z" fill="white"/>
</svg>
