<svg width="32" height="32" viewBox="0 0 32 32" fill="none" xmlns="http://www.w3.org/2000/svg">
<path d="M29.3337 15.9998C29.3337 23.3636 23.3641 29.3332 16.0003 29.3332C8.63653 29.3332 2.66699 23.3636 2.66699 15.9998C2.66699 8.63604 8.63653 2.6665 16.0003 2.6665C23.3641 2.6665 29.3337 8.63604 29.3337 15.9998Z" stroke="#4C24A0" stroke-width="2"/>
<path d="M19.6139 13.4146C19.4818 12.3978 18.3142 10.7548 16.2147 10.7548C13.7753 10.7547 12.7488 12.1058 12.5405 12.7813C12.2156 13.6849 12.2806 15.5426 15.1399 15.7452C18.7142 15.9985 20.1461 16.4204 19.9639 18.6078C19.7817 20.7952 17.7893 21.2678 16.2147 21.217C14.6401 21.1665 12.0638 20.4432 11.9639 18.4976M15.9649 9.33057V10.7596M15.9649 21.204V22.6638" stroke="#4C24A0" stroke-width="2" stroke-linecap="round"/>
</svg>
