<svg width="24" height="24" viewBox="0 0 24 24" fill="none" xmlns="http://www.w3.org/2000/svg">
<mask id="mask0_425_4301" style="mask-type:luminance" maskUnits="userSpaceOnUse" x="0" y="0" width="24" height="24">
<path d="M23.2942 9.77372H12.0106V14.3873H18.4942C18.39 15.0403 18.156 15.6826 17.8132 16.2683C17.4206 16.9393 16.9351 17.4502 16.4376 17.8392C14.9471 19.0046 13.2095 19.2429 12.0027 19.2429C8.95426 19.2429 6.34954 17.2325 5.3412 14.5006C5.30051 14.4014 5.27349 14.299 5.24059 14.1978C5.01777 13.5025 4.89602 12.7661 4.89602 12.0008C4.89602 11.2042 5.02786 10.4417 5.26824 9.72161C6.21642 6.88141 8.87986 4.76006 12.0049 4.76006C12.6335 4.76006 13.2388 4.83641 13.8128 4.98869C15.1247 5.3367 16.0526 6.02212 16.6212 6.56428L20.0521 3.13576C17.9651 1.18317 15.2445 2.95218e-09 11.9992 2.95218e-09C9.40481 -5.69793e-05 7.00954 0.824781 5.0467 2.21878C3.4549 3.34929 2.14939 4.86288 1.26833 6.62076C0.448825 8.25066 9.15527e-05 10.0569 9.15527e-05 11.999C9.15527e-05 13.9411 0.44951 15.7661 1.26902 17.381V17.3918C2.13463 19.1062 3.40044 20.5823 4.9389 21.7076C6.28292 22.6907 8.69286 24 11.9992 24C13.9006 24 15.5858 23.6502 17.072 22.9946C18.1441 22.5217 19.094 21.9049 19.954 21.1122C21.0903 20.0647 21.9803 18.7691 22.5877 17.2785C23.1952 15.7878 23.5201 14.1022 23.5201 12.2747C23.5201 11.4236 23.4363 10.5592 23.2942 9.77363V9.77372Z" fill="white"/>
</mask>
<g mask="url(#mask0_425_4301)">
<g filter="url(#filter0_f_425_4301)">
<path d="M-0.172943 12.0806C-0.160471 13.9921 0.373309 15.9642 1.18127 17.5563V17.5673C1.76507 18.7235 2.56294 19.6368 3.47171 20.5417L8.96045 18.4982C7.92201 17.9599 7.76355 17.6301 7.01917 17.0282C6.25847 16.2455 5.69151 15.347 5.33843 14.2934H5.32421L5.33843 14.2824C5.10615 13.5866 5.08324 12.8481 5.07467 12.0806H-0.172943Z" fill="url(#paint0_radial_425_4301)"/>
</g>
<g filter="url(#filter1_f_425_4301)">
<path d="M12.0107 -0.0874023C11.4682 1.85739 11.6756 3.74779 12.0107 4.84771C12.6372 4.84819 13.2407 4.92439 13.8129 5.07619C15.1247 5.42421 16.0526 6.10964 16.6212 6.6518L20.1399 3.13569C18.0554 1.18543 15.5468 -0.0843296 12.0107 -0.0874023Z" fill="url(#paint1_radial_425_4301)"/>
</g>
<g filter="url(#filter2_f_425_4301)">
<path d="M11.9988 -0.102539C9.33782 -0.102598 6.88107 0.743416 4.86785 2.17321C4.12033 2.7041 3.43435 3.31735 2.82353 3.99931C2.66351 5.53117 4.02141 7.41399 6.71045 7.3984C8.01516 5.84975 9.9448 4.84778 12.0925 4.84778C12.0944 4.84778 12.0964 4.84795 12.0983 4.84796L12.0106 -0.102189C12.0066 -0.102191 12.0028 -0.102539 11.9988 -0.102539Z" fill="url(#paint2_radial_425_4301)"/>
</g>
<g filter="url(#filter3_f_425_4301)">
<path d="M20.7817 12.6345L18.4065 14.2995C18.3023 14.9524 18.0681 15.5947 17.7254 16.1804C17.3327 16.8514 16.8473 17.3623 16.3498 17.7514C14.8624 18.9144 13.1294 19.1538 11.9229 19.1548C10.6759 21.322 10.4573 22.4075 12.0106 24.1567C13.9327 24.1552 15.6367 23.8012 17.1397 23.1382C18.2262 22.6589 19.1888 22.0338 20.0604 21.2305C21.212 20.1689 22.114 18.8559 22.7296 17.3453C23.3452 15.8346 23.6744 14.1265 23.6744 12.2744L20.7817 12.6345Z" fill="url(#paint3_radial_425_4301)"/>
</g>
<g filter="url(#filter4_f_425_4301)">
<path d="M11.8351 9.59814V14.5623H23.2625C23.363 13.8825 23.6954 13.0027 23.6954 12.2744C23.6954 11.4233 23.6117 10.3837 23.4696 9.59814H11.8351Z" fill="#3086FF"/>
</g>
<g filter="url(#filter5_f_425_4301)">
<path d="M2.87812 3.82373C2.17294 4.61104 1.57049 5.49227 1.09282 6.44531C0.273328 8.07522 -0.175385 10.0567 -0.175385 11.9988C-0.175385 12.0262 -0.173165 12.0529 -0.172986 12.0803C0.189944 12.7903 4.84023 12.6543 5.07462 12.0803C5.07433 12.0535 5.07137 12.0273 5.07137 12.0005C5.07137 11.204 5.20325 10.6168 5.44363 9.89671C5.74018 9.00844 6.2045 8.19046 6.79824 7.4857C6.93283 7.31036 7.29184 6.93341 7.39658 6.70732C7.43649 6.62119 7.32415 6.57285 7.31787 6.54254C7.31084 6.50864 7.16023 6.5359 7.12648 6.51065C7.01935 6.43046 6.8072 6.38859 6.67837 6.35137C6.40301 6.27181 5.94667 6.09636 5.69321 5.91449C4.89201 5.33961 3.64168 4.65293 2.87812 3.82373Z" fill="url(#paint4_radial_425_4301)"/>
</g>
<g filter="url(#filter6_f_425_4301)">
<path d="M5.7105 6.54615C7.56839 7.69454 8.10268 5.9665 9.33792 5.42575L7.18919 0.878906C6.39876 1.2179 5.65197 1.63907 4.95906 2.13117C3.92426 2.86608 3.01045 3.76289 2.25558 4.78347L5.7105 6.54615Z" fill="url(#paint5_radial_425_4301)"/>
</g>
<g filter="url(#filter7_f_425_4301)">
<path d="M6.46665 18.1464C3.97267 19.0652 3.58223 19.0981 3.35266 20.6753C3.79136 21.1121 4.26271 21.5162 4.76359 21.8826C6.1076 22.8656 8.6929 24.1749 11.9993 24.1749C12.0031 24.1749 12.0069 24.1746 12.0107 24.1746V19.0671C12.0082 19.0671 12.0054 19.0673 12.0029 19.0673C10.7647 19.0673 9.77536 18.7355 8.76094 18.1584C8.51083 18.0161 8.05705 18.3982 7.82638 18.2274C7.50824 17.9918 6.74259 18.4304 6.46665 18.1464Z" fill="url(#paint6_radial_425_4301)"/>
</g>
<g opacity="0.5" filter="url(#filter8_f_425_4301)">
<path d="M10.55 18.9062V24.0861C11.0127 24.1414 11.4941 24.1749 11.9992 24.1749C12.5055 24.1749 12.9953 24.1484 13.4712 24.0996V18.9412C12.9379 19.0342 12.4355 19.0673 12.0028 19.0673C11.5044 19.0673 11.0197 19.0081 10.55 18.9062Z" fill="url(#paint7_linear_425_4301)"/>
</g>
</g>
<defs>
<filter id="filter0_f_425_4301" x="-0.18" y="12.0735" width="9.14751" height="8.47505" filterUnits="userSpaceOnUse" color-interpolation-filters="sRGB">
<feFlood flood-opacity="0" result="BackgroundImageFix"/>
<feBlend mode="normal" in="SourceGraphic" in2="BackgroundImageFix" result="shape"/>
<feGaussianBlur stdDeviation="0.00352828" result="effect1_foregroundBlur_425_4301"/>
</filter>
<filter id="filter1_f_425_4301" x="11.6701" y="-0.0944589" width="8.47691" height="6.75337" filterUnits="userSpaceOnUse" color-interpolation-filters="sRGB">
<feFlood flood-opacity="0" result="BackgroundImageFix"/>
<feBlend mode="normal" in="SourceGraphic" in2="BackgroundImageFix" result="shape"/>
<feGaussianBlur stdDeviation="0.00352828" result="effect1_foregroundBlur_425_4301"/>
</filter>
<filter id="filter2_f_425_4301" x="2.8038" y="-0.109596" width="9.30159" height="7.51509" filterUnits="userSpaceOnUse" color-interpolation-filters="sRGB">
<feFlood flood-opacity="0" result="BackgroundImageFix"/>
<feBlend mode="normal" in="SourceGraphic" in2="BackgroundImageFix" result="shape"/>
<feGaussianBlur stdDeviation="0.00352828" result="effect1_foregroundBlur_425_4301"/>
</filter>
<filter id="filter3_f_425_4301" x="10.909" y="12.2674" width="12.7724" height="11.8964" filterUnits="userSpaceOnUse" color-interpolation-filters="sRGB">
<feFlood flood-opacity="0" result="BackgroundImageFix"/>
<feBlend mode="normal" in="SourceGraphic" in2="BackgroundImageFix" result="shape"/>
<feGaussianBlur stdDeviation="0.00352828" result="effect1_foregroundBlur_425_4301"/>
</filter>
<filter id="filter4_f_425_4301" x="11.8281" y="9.59109" width="11.8743" height="4.97847" filterUnits="userSpaceOnUse" color-interpolation-filters="sRGB">
<feFlood flood-opacity="0" result="BackgroundImageFix"/>
<feBlend mode="normal" in="SourceGraphic" in2="BackgroundImageFix" result="shape"/>
<feGaussianBlur stdDeviation="0.00352828" result="effect1_foregroundBlur_425_4301"/>
</filter>
<filter id="filter5_f_425_4301" x="-0.182441" y="3.81667" width="7.59465" height="8.75337" filterUnits="userSpaceOnUse" color-interpolation-filters="sRGB">
<feFlood flood-opacity="0" result="BackgroundImageFix"/>
<feBlend mode="normal" in="SourceGraphic" in2="BackgroundImageFix" result="shape"/>
<feGaussianBlur stdDeviation="0.00352828" result="effect1_foregroundBlur_425_4301"/>
</filter>
<filter id="filter6_f_425_4301" x="2.20597" y="0.829296" width="7.18156" height="6.15244" filterUnits="userSpaceOnUse" color-interpolation-filters="sRGB">
<feFlood flood-opacity="0" result="BackgroundImageFix"/>
<feBlend mode="normal" in="SourceGraphic" in2="BackgroundImageFix" result="shape"/>
<feGaussianBlur stdDeviation="0.0248052" result="effect1_foregroundBlur_425_4301"/>
</filter>
<filter id="filter7_f_425_4301" x="3.3456" y="18.1189" width="8.67219" height="6.06294" filterUnits="userSpaceOnUse" color-interpolation-filters="sRGB">
<feFlood flood-opacity="0" result="BackgroundImageFix"/>
<feBlend mode="normal" in="SourceGraphic" in2="BackgroundImageFix" result="shape"/>
<feGaussianBlur stdDeviation="0.00352828" result="effect1_foregroundBlur_425_4301"/>
</filter>
<filter id="filter8_f_425_4301" x="10.543" y="18.8992" width="2.93532" height="5.28267" filterUnits="userSpaceOnUse" color-interpolation-filters="sRGB">
<feFlood flood-opacity="0" result="BackgroundImageFix"/>
<feBlend mode="normal" in="SourceGraphic" in2="BackgroundImageFix" result="shape"/>
<feGaussianBlur stdDeviation="0.00352828" result="effect1_foregroundBlur_425_4301"/>
</filter>
<radialGradient id="paint0_radial_425_4301" cx="0" cy="0" r="1" gradientTransform="matrix(-0.488747 -11.9519 17.5725 -0.717223 8.85057 20.3617)" gradientUnits="userSpaceOnUse">
<stop offset="0.141612" stop-color="#1ABD4D"/>
<stop offset="0.247515" stop-color="#6EC30D"/>
<stop offset="0.311547" stop-color="#8AC502"/>
<stop offset="0.366013" stop-color="#A2C600"/>
<stop offset="0.445673" stop-color="#C8C903"/>
<stop offset="0.540305" stop-color="#EBCB03"/>
<stop offset="0.615636" stop-color="#F7CD07"/>
<stop offset="0.699345" stop-color="#FDCD04"/>
<stop offset="0.771242" stop-color="#FDCE05"/>
<stop offset="0.860566" stop-color="#FFCE0A"/>
</radialGradient>
<radialGradient id="paint1_radial_425_4301" cx="0" cy="0" r="1" gradientTransform="matrix(8.30027 -2.03557e-05 -1.16664e-05 10.7093 19.8107 6.3974)" gradientUnits="userSpaceOnUse">
<stop offset="0.408458" stop-color="#FB4E5A"/>
<stop offset="1" stop-color="#FF4540"/>
</radialGradient>
<radialGradient id="paint2_radial_425_4301" cx="0" cy="0" r="1" gradientTransform="matrix(-11.6293 6.43492 8.74038 15.766 15.2778 -1.65274)" gradientUnits="userSpaceOnUse">
<stop offset="0.231273" stop-color="#FF4541"/>
<stop offset="0.311547" stop-color="#FF4540"/>
<stop offset="0.457516" stop-color="#FF4640"/>
<stop offset="0.540305" stop-color="#FF473F"/>
<stop offset="0.699346" stop-color="#FF5138"/>
<stop offset="0.771242" stop-color="#FF5B33"/>
<stop offset="0.860566" stop-color="#FF6C29"/>
<stop offset="1" stop-color="#FF8C18"/>
</radialGradient>
<radialGradient id="paint3_radial_425_4301" cx="0" cy="0" r="1" gradientTransform="matrix(-21.09 -27.5047 -10.1623 7.77752 12.1835 22.6033)" gradientUnits="userSpaceOnUse">
<stop offset="0.131546" stop-color="#0CBA65"/>
<stop offset="0.209784" stop-color="#0BB86D"/>
<stop offset="0.297297" stop-color="#09B479"/>
<stop offset="0.396257" stop-color="#08AD93"/>
<stop offset="0.477124" stop-color="#0AA6A9"/>
<stop offset="0.568425" stop-color="#0D9CC6"/>
<stop offset="0.667385" stop-color="#1893DD"/>
<stop offset="0.768727" stop-color="#258BF1"/>
<stop offset="0.858506" stop-color="#3086FF"/>
</radialGradient>
<radialGradient id="paint4_radial_425_4301" cx="0" cy="0" r="1" gradientTransform="matrix(-1.49249 12.8522 17.7871 2.06168 10.98 2.16386)" gradientUnits="userSpaceOnUse">
<stop offset="0.366013" stop-color="#FF4E3A"/>
<stop offset="0.457516" stop-color="#FF8A1B"/>
<stop offset="0.540305" stop-color="#FFA312"/>
<stop offset="0.615636" stop-color="#FFB60C"/>
<stop offset="0.771242" stop-color="#FFCD0A"/>
<stop offset="0.860566" stop-color="#FECF0A"/>
<stop offset="0.915033" stop-color="#FECF08"/>
<stop offset="1" stop-color="#FDCD01"/>
</radialGradient>
<radialGradient id="paint5_radial_425_4301" cx="0" cy="0" r="1" gradientTransform="matrix(-4.31408 4.76678 -13.4576 -12.1566 8.88129 2.03076)" gradientUnits="userSpaceOnUse">
<stop offset="0.315904" stop-color="#FF4C3C"/>
<stop offset="0.603818" stop-color="#FF692C"/>
<stop offset="0.726837" stop-color="#FF7825"/>
<stop offset="0.884534" stop-color="#FF8D1B"/>
<stop offset="1" stop-color="#FF9F13"/>
</radialGradient>
<radialGradient id="paint6_radial_425_4301" cx="0" cy="0" r="1" gradientTransform="matrix(-11.6293 -6.43492 8.74038 -15.766 15.278 25.6522)" gradientUnits="userSpaceOnUse">
<stop offset="0.231273" stop-color="#0FBC5F"/>
<stop offset="0.311547" stop-color="#0FBC5F"/>
<stop offset="0.366013" stop-color="#0FBC5E"/>
<stop offset="0.457516" stop-color="#0FBC5D"/>
<stop offset="0.540305" stop-color="#12BC58"/>
<stop offset="0.699346" stop-color="#28BF3C"/>
<stop offset="0.771242" stop-color="#38C02B"/>
<stop offset="0.860566" stop-color="#52C218"/>
<stop offset="0.915033" stop-color="#67C30F"/>
<stop offset="1" stop-color="#86C504"/>
</radialGradient>
<linearGradient id="paint7_linear_425_4301" x1="10.55" y1="21.5406" x2="13.4712" y2="21.5406" gradientUnits="userSpaceOnUse">
<stop stop-color="#0FBC5C"/>
<stop offset="1" stop-color="#0CBA65"/>
</linearGradient>
</defs>
</svg>
