<svg width="20" height="20" viewBox="0 0 20 20" fill="none" xmlns="http://www.w3.org/2000/svg">
<path d="M0.351391 11.2135C-0.00162878 8.91624 -0.178139 7.76763 0.256165 6.74938C0.690469 5.73112 1.65403 5.03443 3.58114 3.64106L5.02099 2.6C7.41829 0.866667 8.61694 0 10 0C11.3831 0 12.5817 0.866667 14.979 2.6L16.4189 3.64106C18.346 5.03443 19.3095 5.73112 19.7438 6.74938C20.1781 7.76763 20.0016 8.91624 19.6486 11.2135L19.3476 13.1724C18.8471 16.4289 18.5969 18.0572 17.429 19.0286C16.2611 20 14.5537 20 11.1388 20H8.86119C5.44633 20 3.73891 20 2.571 19.0286C1.40309 18.0572 1.15287 16.4289 0.652427 13.1724L0.351391 11.2135Z" fill="white"/>
<path d="M8 16L12 16" stroke="#381A7A" stroke-width="1.5" stroke-linecap="round" stroke-linejoin="round"/>
</svg>
