<svg width="16" height="16" viewBox="0 0 16 16" fill="none" xmlns="http://www.w3.org/2000/svg">
<path d="M10.3333 8.66667C12.7266 8.66667 14.6667 8.06971 14.6667 7.33333C14.6667 6.59695 12.7266 6 10.3333 6C7.9401 6 6 6.59695 6 7.33333C6 8.06971 7.9401 8.66667 10.3333 8.66667Z" stroke="#4C24A0" stroke-width="1.125"/>
<path d="M14.6667 10.3333C14.6667 11.0697 12.7266 11.6666 10.3333 11.6666C7.94007 11.6666 6 11.0697 6 10.3333" stroke="#4C24A0" stroke-width="1.125"/>
<path d="M14.6667 7.33325V13.1999C14.6667 14.0099 12.7266 14.6666 10.3333 14.6666C7.94007 14.6666 6 14.0099 6 13.1999V7.33325" stroke="#4C24A0" stroke-width="1.125"/>
<path d="M5.66658 3.99992C8.05982 3.99992 9.99992 3.40296 9.99992 2.66659C9.99992 1.93021 8.05982 1.33325 5.66658 1.33325C3.27335 1.33325 1.33325 1.93021 1.33325 2.66659C1.33325 3.40296 3.27335 3.99992 5.66658 3.99992Z" stroke="#4C24A0" stroke-width="1.125"/>
<path d="M3.99992 7.33333C2.73871 7.17987 1.57986 6.783 1.33325 6M3.99992 10.6667C2.73871 10.5132 1.57986 10.1163 1.33325 9.33333" stroke="#4C24A0" stroke-width="1.125" stroke-linecap="round"/>
<path d="M3.99992 14.0001C2.73871 13.8466 1.57986 13.4497 1.33325 12.6667V2.66675" stroke="#4C24A0" stroke-width="1.125" stroke-linecap="round"/>
<path d="M10 4.00008V2.66675" stroke="#4C24A0" stroke-width="1.125" stroke-linecap="round"/>
</svg>
