<svg width="29" height="18" viewBox="0 0 29 18" fill="none" xmlns="http://www.w3.org/2000/svg">
<g clip-path="url(#clip0_6390_196)">
<path d="M18.4204 1.92529H10.5792V16.0753H18.4204V1.92529Z" fill="#FF5F00"/>
<path d="M11.0771 9.00062C11.0771 6.25062 12.3466 3.62562 14.4874 1.92562C10.6041 -1.14938 4.97835 -0.474384 1.91655 3.45062C-1.14525 7.35062 -0.473148 13.0006 3.43501 16.0756C6.69595 18.6506 11.2513 18.6506 14.5123 16.0756C12.3466 14.3756 11.0771 11.7506 11.0771 9.00062Z" fill="#EB001B"/>
<path d="M28.9998 9.00037C28.9998 13.9754 24.9921 18.0004 20.0384 18.0004C18.0221 18.0004 16.0805 17.3254 14.5123 16.0754C18.3955 13.0004 19.0676 7.35037 16.0058 3.42537C15.5578 2.87537 15.0599 2.35037 14.5123 1.92537C18.3955 -1.14963 24.0462 -0.474628 27.0831 3.45037C28.3277 5.02537 28.9998 6.97537 28.9998 9.00037Z" fill="#F79E1B"/>
<path d="M28.1535 14.5751V14.2751H28.278V14.2251H27.9792V14.2751H28.1037V14.5751H28.1535ZM28.726 14.5751V14.2251H28.6265L28.5269 14.4751L28.4273 14.2251H28.3277V14.5751H28.4024V14.3001L28.502 14.5251H28.5767L28.6762 14.3001V14.5751H28.726Z" fill="#F79E1B"/>
</g>
<defs>
<clipPath id="clip0_6390_196">
<rect width="29" height="18" fill="white"/>
</clipPath>
</defs>
</svg>
