<svg width="30" height="30" viewBox="0 0 30 30" fill="none" xmlns="http://www.w3.org/2000/svg">
<path d="M15 14.375V15M22.5 15V14.375M7.5 14.375V15M15.625 13.75H14.375C14.0299 13.75 13.75 14.0299 13.75 14.375V15.625C13.75 15.9701 14.0299 16.25 14.375 16.25H15.625C15.9701 16.25 16.25 15.9701 16.25 15.625V14.375C16.25 14.0299 15.9701 13.75 15.625 13.75ZM23.125 13.75H21.875C21.5299 13.75 21.25 14.0299 21.25 14.375V15.625C21.25 15.9701 21.5299 16.25 21.875 16.25H23.125C23.4701 16.25 23.75 15.9701 23.75 15.625V14.375C23.75 14.0299 23.4701 13.75 23.125 13.75ZM8.12501 13.75H6.87501C6.52983 13.75 6.25 14.0299 6.25 14.375V15.625C6.25 15.9701 6.52982 16.25 6.875 16.25H8.125C8.47018 16.25 8.75 15.9701 8.75 15.625V14.375C8.75 14.0299 8.47019 13.75 8.12501 13.75Z" stroke="#381A7A" stroke-width="1.875" stroke-linecap="round" stroke-linejoin="round"/>
</svg>
