<svg width="25" height="8" viewBox="0 0 25 8" fill="none" xmlns="http://www.w3.org/2000/svg">
<g clip-path="url(#clip0_6390_184)">
<path d="M16.2886 0C14.5158 0 12.9241 0.912941 12.9241 2.58824C12.9241 4.51765 15.7358 4.64941 15.7358 5.60941C15.7358 6.01412 15.2592 6.38118 14.4586 6.38118C13.3149 6.38118 12.4571 5.87294 12.4571 5.87294L12.0949 7.56706C12.0949 7.56706 13.0766 8 14.3919 8C16.3363 8 17.8612 7.04941 17.8612 5.33647C17.8612 3.30353 15.04 3.17176 15.04 2.27765C15.04 1.95765 15.4308 1.60941 16.2314 1.60941C17.1369 1.60941 17.8803 1.97647 17.8803 1.97647L18.2425 0.338824C18.2329 0.338824 17.4228 0 16.2886 0ZM0.0476554 0.122353L0 0.367059C0 0.367059 0.743424 0.498824 1.42013 0.771765C2.28746 1.08235 2.34464 1.26118 2.49714 1.81647L4.08883 7.86824H6.22379L9.49295 0.122353H7.36752L5.26115 5.39294L4.40336 0.922353C4.32711 0.414118 3.9268 0.122353 3.43119 0.122353H0.0476554ZM10.3507 0.122353L8.68281 7.86824H10.7129L12.3713 0.122353H10.3507ZM21.6546 0.122353C21.1685 0.122353 20.9112 0.376471 20.7205 0.828235L17.7469 7.86824H19.8723L20.2821 6.69176H22.8746L23.1224 7.86824H25L23.3702 0.122353H21.6546ZM21.931 2.22118L22.56 5.12941H20.873L21.931 2.22118Z" fill="#1434CB"/>
</g>
<defs>
<clipPath id="clip0_6390_184">
<rect width="25" height="8" fill="white"/>
</clipPath>
</defs>
</svg>
