<svg width="96" height="96" viewBox="0 0 96 96" fill="none" xmlns="http://www.w3.org/2000/svg">
<path d="M48 56C42.748 56 38.2842 52.626 36.6575 47.9276C35.9347 45.84 34.2091 44 32 44C22.5719 44 17.8579 44 14.9289 46.9288C12 49.858 12 54.572 12 64C12 73.428 12 78.142 14.9289 81.0712C17.8579 84 22.5719 84 32 84H64C73.428 84 78.142 84 81.0712 81.0712C84 78.142 84 73.428 84 64C84 54.572 84 49.858 81.0712 46.9288C78.142 44 73.428 44 64 44C61.7908 44 60.0652 45.84 59.3424 47.9276C57.7156 52.626 53.252 56 48 56Z" stroke="#381A7A" stroke-width="6" stroke-linecap="round" stroke-linejoin="round"/>
<path d="M84 68V48C84 38.5719 84 33.8579 81.0712 30.9289C78.142 28 73.428 28 64 28H32C22.5719 28 17.8579 28 14.9289 30.9289C12 33.8579 12 38.5719 12 48V68" stroke="#381A7A" stroke-width="6" stroke-linecap="round" stroke-linejoin="round"/>
<path d="M84 52V32C84 22.5719 84 17.8579 81.0712 14.9289C78.142 12 73.428 12 64 12H32C22.5719 12 17.8579 12 14.9289 14.9289C12 17.8579 12 22.5719 12 32V52" stroke="#381A7A" stroke-width="6" stroke-linecap="round" stroke-linejoin="round"/>
</svg>
